[Header]
FileType HTR
DataType HTRS
FileVersion 1
NumSegments 36
NumFrames 5
DataFrameRate 120
EulerRotationOrder ZYX
CalibrationUnits mm
RotationUnits Degrees
GlobalAxisofGravity Y
BoneLengthAxis Y
ScaleFactor 1.0
[SegmentNames&Hierarchy]
Hips	GLOBAL
Spine	Hips
Spine1	Spine
Spine2	Spine1
Spine3	Spine2
Neck	Spine3
Head	Neck
HeadEnd	Head
RightShoulder	Spine3
RightArm	RightShoulder
RightForeArm	RightArm
RightForeArmRoll	RightForeArm
RightHand	RightForeArmRoll
RightHandEnd	RightHand
R_FingersEnd	RightHandEnd
RightHandThumb1	RightHand
RightHandThumb2	RightHandThumb1
LeftShoulder	Spine3
LeftArm	LeftShoulder
LeftForeArm	LeftArm
LeftForeArmRoll	LeftForeArm
LeftHand	LeftForeArmRoll
LeftHandEnd	LeftHand
L_FingersEnd	LeftHandEnd
LeftHandThumb1	LeftHand
LeftHandThumb2	LeftHandThumb1
RightUpLeg	Hips
RightLeg	RightUpLeg
RightFoot	RightLeg
RightToeBase	RightFoot
RightToeBaseEnd	RightToeBase
LeftUpLeg	Hips
LeftLeg	LeftUpLeg
LeftFoot	LeftLeg
LeftToeBase	LeftFoot
LeftToeBaseEnd	LeftToeBase
[BasePosition]
Hips	0	0	0	0	0	0	1
Spine	0	0	0	-10	-0	0	1
Spine1	0	0	0	5	0	0	1
Spine2	0	0	0	5	0	0	1
Spine3	0	0	0	0	0	0	1
Neck	0	0	0	10	0	0	1
Head	0	0	0	-10	-0	0	1
HeadEnd	0	0	0	0	0	0	1
RightShoulder	0	0	0	-180	-0	-180	1
RightArm	0	0	0	0	0	0	1
RightForeArm	0	0	0	0	0	0	1
RightForeArmRoll	0	0	0	0	0	0	1
RightHand	0	0	0	0	0	0	1
RightHandEnd	0	0	0	-90	-0	0	1
R_FingersEnd	0	0	0	0	0	0	1
RightHandThumb1	0	0	0	170	-0	-15	1
RightHandThumb2	0	0	0	0	0	0	1
LeftShoulder	0	0	0	0	0	0	1
LeftArm	0	0	0	0	0	0	1
LeftForeArm	0	0	0	0	0	0	1
LeftForeArmRoll	0	0	0	0	0	0	1
LeftHand	0	0	0	0	0	0	1
LeftHandEnd	0	0	0	90	0	0	1
L_FingersEnd	0	0	0	0	0	0	1
LeftHandThumb1	0	0	0	170	-0	-15	1
LeftHandThumb2	0	0	0	0	0	0	1
RightUpLeg	0	0	0	-0	90	0	1
RightLeg	0	0	0	0	0	0	1
RightFoot	0	0	0	0	-0	-70	1
RightToeBase	0	0	0	0	-0	-20	1
RightToeBaseEnd	0	0	0	0	0	0	1
LeftUpLeg	0	0	0	-0	90	0	1
LeftLeg	0	0	0	0	0	0	1
LeftFoot	0	0	0	0	-0	-70	1
LeftToeBase	0	0	0	0	-0	-20	1
LeftToeBaseEnd	0	0	0	0	0	0	1
[Hips]
46	-5.199706554	970.6446533	-19.41562653	-89.04230499	0.004854984581	0.3172797263	1.0
47	-5.206670761	970.6734619	-19.41249084	-89.03760529	0.01913710497	0.301977396	1.0
48	-5.220208645	970.7119751	-19.39593124	-89.03429413	0.03286120668	0.2853368223	1.0
49	-5.237245083	970.7513428	-19.38005638	-89.02862549	0.04512463883	0.2715462148	1.0
50	-5.254703045	970.7825317	-19.37897301	-89.02020264	0.05568692088	0.2612367272	1.0
[Spine]
46	0	44.87670517	67.31505585	-0.2797901034	0.4133694172	0.07524810731	1.0
47	0	44.87670517	67.31505585	-0.2722179592	0.4073922038	0.07553109527	1.0
48	0	44.87670517	67.31505585	-0.2638970613	0.4007938802	0.07585610449	1.0
49	0	44.87670517	67.31505585	-0.257022202	0.3951047063	0.07605884969	1.0
50	0	44.87670517	67.31505585	-0.2517415881	0.3905239403	0.07613137364	1.0
[Spine1]
46	0	0	89.75341034	-0.6734747887	0.02891946211	-0.002848227974	1.0
47	0	0	89.75341034	-0.6622098684	0.02853273973	-0.002202319913	1.0
48	0	0	89.75341034	-0.6497091055	0.02761552855	-0.001557966927	1.0
49	0	0	89.75341034	-0.6390743852	0.02629393898	-0.001085515018	1.0
50	0	0	89.75341034	-0.6304075122	0.02440248244	-0.0008231487009	1.0
[Spine2]
46	0	0	89.75341034	1.406784415	0.4974808991	0.315733552	1.0
47	0	0	89.75341034	1.398133278	0.4921841621	0.3195652068	1.0
48	0	0	89.75341034	1.389081001	0.4870436788	0.3246593475	1.0
49	0	0	89.75341034	1.382169485	0.4834426343	0.3293704987	1.0
50	0	0	89.75341034	1.377707243	0.4818131924	0.3337727189	1.0
[Spine3]
46	0	0	89.75341034	0.1270126998	-0.392221868	-0.08366285264	1.0
47	0	0	89.75341034	0.1230473891	-0.3967950344	-0.07934053987	1.0
48	0	0	89.75341034	0.1187815666	-0.4018148482	-0.07496190071	1.0
49	0	0	89.75341034	0.1153098568	-0.4055371583	-0.07173644006	1.0
50	0	0	89.75341034	0.1126965284	-0.4076984525	-0.06994834542	1.0
[Neck]
46	0	-33.65752792	235.6027069	-1.278451324	0.09580699354	-0.1366379261	1.0
47	0	-33.65752792	235.6027069	-1.28315115	0.0823751241	-0.1461897194	1.0
48	0	-33.65752792	235.6027069	-1.288143158	0.06757673621	-0.15501827	1.0
49	0	-33.65752792	235.6027069	-1.293336511	0.05419212952	-0.1612248123	1.0
50	0	-33.65752792	235.6027069	-1.299392343	0.04229389876	-0.1641224325	1.0
[Head]
46	0	0	123.4109421	-1.045988798	-0.2706553936	-0.9728529453	1.0
47	0	0	123.4109421	-1.035010099	-0.2596158683	-0.9835391045	1.0
48	0	0	123.4109421	-1.022850037	-0.2460642904	-0.995952785	1.0
49	0	0	123.4109421	-1.014552712	-0.23538661	-1.005811214	1.0
50	0	0	123.4109421	-1.010845423	-0.2280029655	-1.012849331	1.0
[HeadEnd]
46	0	0	145.2883301	0	0	0	1.0
47	0	0	145.2883301	0	0	0	1.0
48	0	0	145.2883301	0	0	0	1.0
49	0	0	145.2883301	0	0	0	1.0
50	0	0	145.2883301	0	0	0	1.0
[RightShoulder]
46	-30.74827576	-51.24713135	166.0407104	-4.433842182	-5.925730228	0.8390727639	1.0
47	-30.74827576	-51.24713135	166.0407104	-4.437045097	-5.924796581	0.8492259383	1.0
48	-30.74827576	-51.24713135	166.0407104	-4.441047192	-5.924155712	0.8609995842	1.0
49	-30.74827576	-51.24713135	166.0407104	-4.443818092	-5.925281525	0.8697949648	1.0
50	-30.74827576	-51.24713135	166.0407104	-4.44524622	-5.928616047	0.8751337528	1.0
[RightArm]
46	152.7164459	0	0	-24.59804916	-69.14002991	4.287713051	1.0
47	152.7164459	0	0	-24.60815048	-69.15540314	4.304201603	1.0
48	152.7164459	0	0	-24.61828613	-69.17057037	4.317881584	1.0
49	152.7164459	0	0	-24.62627792	-69.18464661	4.322787762	1.0
50	152.7164459	0	0	-24.63205147	-69.19725037	4.316557884	1.0
[RightForeArm]
46	297.8946228	0	0	0	0	-31.27927971	1.0
47	297.8946228	0	0	0	0	-31.29390335	1.0
48	297.8946228	0	0	0	0	-31.30790329	1.0
49	297.8946228	0	0	0	0	-31.3179245	1.0
50	297.8946228	0	0	0	0	-31.32339096	1.0
[RightForeArmRoll]
46	122.9768982	0	0	4.479429722	0	0	1.0
47	122.9768982	0	0	4.49080658	0	0	1.0
48	122.9768982	0	0	4.508451939	0	0	1.0
49	122.9768982	0	0	4.520905018	0	0	1.0
50	122.9768982	0	0	4.529755116	0	0	1.0
[RightHand]
46	127.1009369	0	0	-7.112780622e-006	8.006879807	-3.032006502	1.0
47	127.1009369	0	0	1.296376013e-006	8.013712883	-3.040973186	1.0
48	127.1009369	0	0	9.009163477e-006	8.02048111	-3.054115772	1.0
49	127.1009369	0	0	1.166430775e-005	8.028841972	-3.062888145	1.0
50	127.1009369	0	0	5.521597814e-006	8.041093826	-3.067126513	1.0
[RightHandEnd]
46	72.05677795	0	0	0	0	0	1.0
47	72.05677795	0	0	0	0	0	1.0
48	72.05677795	0	0	0	0	0	1.0
49	72.05677795	0	0	0	0	0	1.0
50	72.05677795	0	0	0	0	0	1.0
[R_FingersEnd]
46	72.05677795	0	0	0	0	0	1.0
47	72.05677795	0	0	0	0	0	1.0
48	72.05677795	0	0	0	0	0	1.0
49	72.05677795	0	0	0	0	0	1.0
50	72.05677795	0	0	0	0	0	1.0
[RightHandThumb1]
46	28.82271004	-48.03784943	19.2151413	0	0	0	1.0
47	28.82271004	-48.03784943	19.2151413	0	0	0	1.0
48	28.82271004	-48.03784943	19.2151413	0	0	0	1.0
49	28.82271004	-48.03784943	19.2151413	0	0	0	1.0
50	28.82271004	-48.03784943	19.2151413	0	0	0	1.0
[RightHandThumb2]
46	72.05677795	0	0	0	0	0	1.0
47	72.05677795	0	0	0	0	0	1.0
48	72.05677795	0	0	0	0	0	1.0
49	72.05677795	0	0	0	0	0	1.0
50	72.05677795	0	0	0	0	0	1.0
[LeftShoulder]
46	30.74827576	-51.24713135	166.0407104	5.388187885	6.050385952	3.038246155	1.0
47	30.74827576	-51.24713135	166.0407104	5.397892475	6.068089485	3.02210331	1.0
48	30.74827576	-51.24713135	166.0407104	5.407856941	6.08694315	3.005383968	1.0
49	30.74827576	-51.24713135	166.0407104	5.413675785	6.100009918	2.992070913	1.0
50	30.74827576	-51.24713135	166.0407104	5.414336681	6.105971336	2.982685089	1.0
[LeftArm]
46	152.7164459	0	0	3.6691401	68.79692841	-34.57834244	1.0
47	152.7164459	0	0	3.706941843	68.78128052	-34.59351349	1.0
48	152.7164459	0	0	3.748094797	68.76474762	-34.60720825	1.0
49	152.7164459	0	0	3.776294231	68.75187683	-34.62220001	1.0
50	152.7164459	0	0	3.788947344	68.74365997	-34.63885498	1.0
[LeftForeArm]
46	297.8946228	0	0	0	0	-19.30892754	1.0
47	297.8946228	0	0	0	0	-19.30481339	1.0
48	297.8946228	0	0	0	0	-19.29974747	1.0
49	297.8946228	0	0	0	0	-19.29641342	1.0
50	297.8946228	0	0	0	0	-19.29548645	1.0
[LeftForeArmRoll]
46	122.9768982	0	0	-4.600221157	0	0	1.0
47	122.9768982	0	0	-4.792675972	0	0	1.0
48	122.9768982	0	0	-5.025585175	0	0	1.0
49	122.9768982	0	0	-5.216842175	0	0	1.0
50	122.9768982	0	0	-5.363984585	0	0	1.0
[LeftHand]
46	127.1009369	0	0	-0.0003334520443	-20.78628159	1.125017166	1.0
47	127.1009369	0	0	-0.001120709931	-20.95063782	0.977617979	1.0
48	127.1009369	0	0	-0.001834475785	-21.13749695	0.8019683361	1.0
49	127.1009369	0	0	-0.002130465582	-21.28946495	0.6581196785	1.0
50	127.1009369	0	0	-0.001770056784	-21.40269852	0.5482640266	1.0
[LeftHandEnd]
46	72.05677795	0	0	0	0	0	1.0
47	72.05677795	0	0	0	0	0	1.0
48	72.05677795	0	0	0	0	0	1.0
49	72.05677795	0	0	0	0	0	1.0
50	72.05677795	0	0	0	0	0	1.0
[L_FingersEnd]
46	72.05677795	0	0	0	0	0	1.0
47	72.05677795	0	0	0	0	0	1.0
48	72.05677795	0	0	0	0	0	1.0
49	72.05677795	0	0	0	0	0	1.0
50	72.05677795	0	0	0	0	0	1.0
[LeftHandThumb1]
46	28.82271004	-48.03784943	-19.2151413	0	0	0	1.0
47	28.82271004	-48.03784943	-19.2151413	0	0	0	1.0
48	28.82271004	-48.03784943	-19.2151413	0	0	0	1.0
49	28.82271004	-48.03784943	-19.2151413	0	0	0	1.0
50	28.82271004	-48.03784943	-19.2151413	0	0	0	1.0
[LeftHandThumb2]
46	72.05677795	0	0	0	0	0	1.0
47	72.05677795	0	0	0	0	0	1.0
48	72.05677795	0	0	0	0	0	1.0
49	72.05677795	0	0	0	0	0	1.0
50	72.05677795	0	0	0	0	0	1.0
[RightUpLeg]
46	-91.21989441	0	-26.64850616	9.506100655	4.522685051	-0.779212594	1.0
47	-91.21989441	0	-26.64850616	9.516025543	4.496667862	-0.7760896683	1.0
48	-91.21989441	0	-26.64850616	9.522631645	4.468395233	-0.771420002	1.0
49	-91.21989441	0	-26.64850616	9.522381783	4.44489193	-0.7696069479	1.0
50	-91.21989441	0	-26.64850616	9.513253212	4.427227974	-0.770960331	1.0
[RightLeg]
46	402.8824463	0	0	0	0	14.90327835	1.0
47	402.8824463	0	0	0	0	14.89667702	1.0
48	402.8824463	0	0	0	0	14.88915443	1.0
49	402.8824463	0	0	0	0	14.87873363	1.0
50	402.8824463	0	0	0	0	14.86446381	1.0
[RightFoot]
46	435.9781189	0	0	4.483435631	-2.000380039	-15.047369	1.0
47	435.9781189	0	0	4.485782146	-1.969956636	-15.04257774	1.0
48	435.9781189	0	0	4.487225533	-1.936267853	-15.0373764	1.0
49	435.9781189	0	0	4.489131451	-1.905794859	-15.03138924	1.0
50	435.9781189	0	0	4.49142313	-1.878885627	-15.02443218	1.0
[RightToeBase]
46	183.1846619	0	0	0	0	0.6811376214	1.0
47	183.1846619	0	0	0	0	0.7083564997	1.0
48	183.1846619	0	0	0	0	0.7359093428	1.0
49	183.1846619	0	0	0	0	0.7536100745	1.0
50	183.1846619	0	0	0	0	0.7592631578	1.0
[RightToeBaseEnd]
46	73.79586792	0	0	0	0	0	1.0
47	73.79586792	0	0	0	0	0	1.0
48	73.79586792	0	0	0	0	0	1.0
49	73.79586792	0	0	0	0	0	1.0
50	73.79586792	0	0	0	0	0	1.0
[LeftUpLeg]
46	91.21989441	0	-26.64850616	0.7836806774	-4.904593468	0.4298377633	1.0
47	91.21989441	0	-26.64850616	0.7793877721	-4.926211834	0.4116389155	1.0
48	91.21989441	0	-26.64850616	0.7751545906	-4.949437141	0.3952648044	1.0
49	91.21989441	0	-26.64850616	0.7635822296	-4.969266415	0.3737141192	1.0
50	91.21989441	0	-26.64850616	0.7426986098	-4.984877586	0.3457218409	1.0
[LeftLeg]
46	402.8824463	0	0	0	0	11.27519798	1.0
47	402.8824463	0	0	0	0	11.29685593	1.0
48	402.8824463	0	0	0	0	11.31772041	1.0
49	402.8824463	0	0	0	0	11.34200954	1.0
50	402.8824463	0	0	0	0	11.37101173	1.0
[LeftFoot]
46	435.9781189	0	0	-7.939906597	-0.3967827559	-12.67955971	1.0
47	435.9781189	0	0	-7.943448544	-0.3701724708	-12.68281364	1.0
48	435.9781189	0	0	-7.946621895	-0.3443332613	-12.68625546	1.0
49	435.9781189	0	0	-7.944563866	-0.3157448769	-12.69137955	1.0
50	435.9781189	0	0	-7.935339451	-0.2835696936	-12.69869995	1.0
[LeftToeBase]
46	183.1846619	0	0	0	0	0.9246843457	1.0
47	183.1846619	0	0	0	0	0.9182636738	1.0
48	183.1846619	0	0	0	0	0.9107263088	1.0
49	183.1846619	0	0	0	0	0.9054068327	1.0
50	183.1846619	0	0	0	0	0.9026395082	1.0
[LeftToeBaseEnd]
46	73.79586792	0	0	0	0	0	1.0
47	73.79586792	0	0	0	0	0	1.0
48	73.79586792	0	0	0	0	0	1.0
49	73.79586792	0	0	0	0	0	1.0
50	73.79586792	0	0	0	0	0	1.0
[EndOfFile]
